
<svg width="34px" height="20px" viewBox="318 228 34 20" version="1.1" xmlns="http://www.w3.org/2000/svg" xmlns:xlink="http://www.w3.org/1999/xlink">
    <!-- Generator: Sketch 3.8.2 (29753) - http://www.bohemiancoding.com/sketch -->
    <desc>Created with Sketch.</desc>
    <defs></defs>
    <polygon id="Fill-6653" stroke="none" fill="#FFFFFF" fill-rule="evenodd" points="318.259 247.683 351.821 247.683 351.821 228.105 318.259 228.105"></polygon>
    <polyline id="Fill-6654" stroke="none" fill="#AB2437" fill-rule="evenodd" points="340.731 235.184 351.821 228.976 351.821 228.105 351.057 228.105 338.412 235.184 340.731 235.184"></polyline>
    <polyline id="Fill-6655" stroke="none" fill="#AB2437" fill-rule="evenodd" points="340.208 240.997 351.821 247.496 351.821 246.197 342.528 240.997 340.208 240.997"></polyline>
    <polyline id="Fill-6656" stroke="none" fill="#AB2437" fill-rule="evenodd" points="318.259 229.596 328.193 235.184 330.515 235.184 318.259 228.296 318.259 229.596"></polyline>
    <polyline id="Fill-6657" stroke="none" fill="#AB2437" fill-rule="evenodd" points="329.988 240.997 318.259 247.569 318.259 247.683 320.378 247.683 332.311 240.997 329.988 240.997"></polyline>
    <polyline id="Fill-6658" stroke="none" fill="#2A2B60" fill-rule="evenodd" points="349.524 228.105 337.773 228.105 337.773 234.687 349.524 228.105"></polyline>
    <polyline id="Fill-6659" stroke="none" fill="#2A2B60" fill-rule="evenodd" points="332.585 228.105 320.881 228.105 332.585 234.687 332.585 228.105"></polyline>
    <polyline id="Fill-6660" stroke="none" fill="#2A2B60" fill-rule="evenodd" points="351.821 235.184 351.821 230.692 343.85 235.184 351.821 235.184"></polyline>
    <polyline id="Fill-6661" stroke="none" fill="#2A2B60" fill-rule="evenodd" points="351.821 245.44 351.821 240.997 343.85 240.997 351.821 245.44"></polyline>
    <polyline id="Fill-6662" stroke="none" fill="#2A2B60" fill-rule="evenodd" points="321.545 247.683 332.585 247.683 332.585 241.496 321.545 247.683"></polyline>
    <polyline id="Fill-6663" stroke="none" fill="#2A2B60" fill-rule="evenodd" points="337.773 247.683 348.849 247.683 337.773 241.496 337.773 247.683"></polyline>
    <polyline id="Fill-6664" stroke="none" fill="#2A2B60" fill-rule="evenodd" points="318.259 240.997 318.259 245.641 326.508 240.997 318.259 240.997"></polyline>
    <polyline id="Fill-6665" stroke="none" fill="#2A2B60" fill-rule="evenodd" points="318.259 235.184 326.508 235.184 318.259 230.533 318.259 235.184"></polyline>
    <polygon id="Fill-6666" stroke="none" fill="#AB2437" fill-rule="evenodd" points="333.623 236.347 318.259 236.347 318.259 239.837 333.623 239.837 333.623 247.683 336.735 247.683 336.735 239.837 351.821 239.837 351.821 236.347 336.735 236.347 336.735 228.105 333.623 228.105"></polygon>
</svg>