<?xml version="1.0" encoding="utf-8"?>
<!-- Generator: Adobe Illustrator 19.0.0, SVG Export Plug-In . SVG Version: 6.00 Build 0)  -->
<svg version="1.1" id="Layer_1" xmlns="http://www.w3.org/2000/svg" xmlns:xlink="http://www.w3.org/1999/xlink" x="0px" y="0px"
	 viewBox="0 0 973.5 198.9" style="enable-background:new 0 0 973.5 198.9;" xml:space="preserve">
<style type="text/css">
	.st0{fill:url(#SVGID_1_);}
	.st1{fill:url(#SVGID_2_);}
	.st2{fill:url(#SVGID_3_);}
	.st3{fill:url(#SVGID_4_);}
	.st4{fill:url(#SVGID_5_);}
	.st5{fill:url(#SVGID_6_);}
	.st6{fill:url(#SVGID_7_);}
	.st7{fill:url(#SVGID_8_);}
	.st8{fill:#B1B3B5;}
</style>
<g>
	
		<linearGradient id="SVGID_1_" gradientUnits="userSpaceOnUse" x1="2157.9285" y1="-4422.7788" x2="2157.9285" y2="-4334.4448" gradientTransform="matrix(1 0 0 1 -1279.1484 4491.5669)">
		<stop  offset="0" style="stop-color:#C6C7C8"/>
		<stop  offset="1" style="stop-color:#A5A7AA"/>
	</linearGradient>
	<polygon class="st0" points="903.5,67.6 868.1,107.3 858.3,67.6 821.9,67.6 839,131.2 827.1,159.4 864.1,159.4 876.2,131.2 
		935.7,67.6 	"/>
	
		<linearGradient id="SVGID_2_" gradientUnits="userSpaceOnUse" x1="1688.8367" y1="-4422.7793" x2="1688.8367" y2="-4334.4448" gradientTransform="matrix(1 0 0 1 -1279.1484 4491.5669)">
		<stop  offset="0" style="stop-color:#C6C7C8"/>
		<stop  offset="1" style="stop-color:#A5A7AA"/>
	</linearGradient>
	<path class="st1" d="M455.8,67.6l-23.2,54.6l-14.5-47.5c-1.4-6.2-2.9-7.2-9.6-7.2h-24.5c-8.6,0-8.7,2.5-11.9,9.8l-35,82h26.4
		l23.4-54.8l14.6,46.8c1.5,5.1,2.7,8,11.2,8c8,0,13,0,21.8,0c8.8,0,9.6-3.2,13.2-10.8l34.4-81H455.8z"/>
	
		<linearGradient id="SVGID_3_" gradientUnits="userSpaceOnUse" x1="2035.4124" y1="-4422.7788" x2="2035.4124" y2="-4334.4438" gradientTransform="matrix(1 0 0 1 -1279.1484 4491.5669)">
		<stop  offset="0" style="stop-color:#C6C7C8"/>
		<stop  offset="1" style="stop-color:#A5A7AA"/>
	</linearGradient>
	<path class="st2" d="M750.8,67.6c-17.4,0-28.8,8.1-35.1,22.9c-5.6,13.2-8.5,20-13.4,31.2c-10.5,24.2,5.6,37.8,26.5,37.7h45.9
		c10.5,0,17.3-6,20.4-13.3l18.4-43.4l-44.8,0l-8.5,19.9h17l-4.4,9.8c-2.5,5.3-5.1,6.9-10.9,7H744c-6.3,0-9.6-4.4-6.6-11.5
		c3.6-8.5,8-18.9,12-28.4c4-9.5,6.4-12.1,18.7-11.9h37l8.5-20.1H750.8z"/>
	
		<linearGradient id="SVGID_4_" gradientUnits="userSpaceOnUse" x1="1806.847" y1="-4422.7793" x2="1806.847" y2="-4334.4448" gradientTransform="matrix(1 0 0 1 -1279.1484 4491.5669)">
		<stop  offset="0" style="stop-color:#C6C7C8"/>
		<stop  offset="1" style="stop-color:#A5A7AA"/>
	</linearGradient>
	<path class="st3" d="M519.3,67.6c-5.1,0-16.6,0-21.8,11.6l-27.3,64c-4.5,9.4,2.8,16.1,12.8,16.1h64.6l8.4-19.9h-40.1
		c-1.6,0-2.3-0.6-2.6-1.1c-0.6-0.9-0.3-2,0-2.6l5.6-13.2h44.3l8.4-19.9l-44.4,0l5.2-12.1c0.3-0.7,1.3-2.9,5.8-2.9H578l8.5-20.1
		H519.3z"/>
	
		<linearGradient id="SVGID_5_" gradientUnits="userSpaceOnUse" x1="1911.809" y1="-4422.7788" x2="1911.809" y2="-4334.4458" gradientTransform="matrix(1 0 0 1 -1279.1484 4491.5669)">
		<stop  offset="0" style="stop-color:#C6C7C8"/>
		<stop  offset="1" style="stop-color:#A5A7AA"/>
	</linearGradient>
	<path class="st4" d="M606.5,67.7l-38.9,91.7l40,0L638,87.8l14.1,0c5.7-0.3,8.8,1.6,9.6,3.9c5.1,13.9-36.9,31.6-36.9,31.6l61.8,62.5
		h6.5L662.2,127c5-2.7,36.8-12.7,35.5-37.9c-0.6-12.4-10.9-21.5-39.1-21.5H606.5z"/>
	
		<linearGradient id="SVGID_6_" gradientUnits="userSpaceOnUse" x1="1578.3441" y1="-4468.5488" x2="1578.3441" y2="-4331.7935" gradientTransform="matrix(1 0 0 1 -1279.1484 4491.5669)">
		<stop  offset="0" style="stop-color:#C6C7C8"/>
		<stop  offset="1" style="stop-color:#A5A7AA"/>
	</linearGradient>
	<path class="st5" d="M288.4,22.3c-23.5,0-31.8,7.9-38.6,24.3l-29,68.1c-14.5,34.5,6.5,44.6,23.9,44.6l73.5,0l11.1-26.2h-66.1
		c-5,0-7-3.2-4.9-8.3l9.7-23.6h67.2l10.4-24.1h-67.3l8.7-20.5c2.2-5.4,5.8-8.2,14-8.2h43.6l37.6-26.2H288.4z"/>
	
		<linearGradient id="SVGID_7_" gradientUnits="userSpaceOnUse" x1="1484.3298" y1="-4422.7764" x2="1484.3298" y2="-4332.7695" gradientTransform="matrix(1 0 0 1 -1279.1484 4491.5669)">
		<stop  offset="0" style="stop-color:#C6C7C8"/>
		<stop  offset="1" style="stop-color:#A5A7AA"/>
	</linearGradient>
	<polygon class="st6" points="197.4,67.6 184.5,98.4 212.7,98.4 225.9,67.6 	"/>
</g>
<linearGradient id="SVGID_8_" gradientUnits="userSpaceOnUse" x1="1392.1409" y1="-4468.145" x2="1392.1409" y2="-4331.9727" gradientTransform="matrix(1 0 0 1 -1279.1484 4491.5669)">
	<stop  offset="0" style="stop-color:#DC842D"/>
	<stop  offset="1" style="stop-color:#D45F2A"/>
</linearGradient>
<path class="st7" d="M110.5,22.3c-36.4,0-52.2,11.9-60.6,29.8L31.7,94.4c-24.6,52.3,8.6,65,32.8,65h77.6l39.1-91.7h-43.5l-44,30.8
	h33.1l-14.8,34.8H70.9c0,0-14.7,0-7.6-15.9l24.4-56.9c4.3-9.6,11.3-12,21-12h56.3l38-26.2H110.5z"/>
<g>
	<path class="st8" d="M652,22.3l-1.9,4.5h-20.7l-2.5,5.8h12.1l-1.9,4.5h-12.1l-2.8,6.6h20.9l-2,4.8h-27l11.1-26.1H652z"/>
	<path class="st8" d="M679.5,37.7c0.6,0.7,0.6,0.5,1.8,2.8l1.7-4.5l5.8-13.7h5.5l-11.1,26.1H679l-12.3-16.2
		c-0.1-0.2-0.8-1.1-1.3-2.1c-0.2,0.7-0.5,1.4-0.7,2.1c-0.1,0.2-0.1,0.5-0.2,0.7c-0.2,0.7-0.3,0.9-0.5,1.4l-6,14.1h-5.5l11.1-26.1
		h4.2L679.5,37.7z"/>
	<path class="st8" d="M711.2,27.1l-7.1,16.6H723l2.5-5.9h-9.8l1.9-4.5h15.9l-3.8,8.9c-0.5,1.1-1.5,3.5-3.5,4.9
		c-1.8,1.2-3.9,1.3-5.6,1.3h-18c-1.7,0-3.8-0.1-4.5-1.3c-0.8-1.4,0.2-3.8,0.7-4.9l5.8-13.8c0.5-1.1,1.5-3.5,3.5-4.9
		c1.8-1.2,3.9-1.3,5.6-1.3h18c1.5,0,3.7,0.1,4.5,1.2c0.9,1.2,0.1,3.1-0.5,4.7l-0.3,0.7l-6.5,1.1l1.2-2.9H711.2z"/>
	<path class="st8" d="M746,48.5H740L751,22.3h6.1L746,48.5z"/>
	<path class="st8" d="M786.5,37.7c0.6,0.7,0.6,0.5,1.8,2.8l1.7-4.5l5.8-13.7h5.5l-11.1,26.1H786l-12.3-16.2
		c-0.1-0.2-0.8-1.1-1.3-2.1c-0.2,0.7-0.5,1.4-0.8,2.1c-0.1,0.2-0.1,0.5-0.2,0.7c-0.2,0.7-0.3,0.9-0.5,1.4l-6,14.1h-5.5l11.1-26.1
		h4.2L786.5,37.7z"/>
	<path class="st8" d="M841.4,22.3l-1.9,4.5h-20.7l-2.5,5.8h12.1l-1.9,4.5h-12.1l-2.8,6.6h20.9l-2,4.8h-27l11.1-26.1H841.4z"/>
	<path class="st8" d="M861.6,28.5c0.5-1.1,1.5-3.5,3.5-4.9c1.8-1.2,3.9-1.3,5.6-1.3H890c1.7,0,3.8,0.1,4.5,1.3
		c0.8,1.4-0.2,3.8-0.7,4.9L888,42.3c-0.5,1.1-1.5,3.5-3.5,4.9c-1.8,1.2-3.9,1.3-5.6,1.3h-19.2c-1.7,0-3.8-0.1-4.5-1.3
		c-0.8-1.4,0.2-3.8,0.7-4.9L861.6,28.5z M881.3,43.7l7.1-16.6h-20.1l-7.1,16.6H881.3z"/>
	<path class="st8" d="M904.3,48.5h-6.1l11.1-26.1h6.1L904.3,48.5z"/>
	<path class="st8" d="M925.9,43.7h19.6l-2,4.8h-25.7l11.1-26.1h6.1L925.9,43.7z"/>
</g>
</svg>
